<?xml version="1.0" encoding="utf-8"?>
<!-- Generator: Adobe Illustrator 23.1.1, SVG Export Plug-In . SVG Version: 6.00 Build 0)  -->
<svg version="1.1" id="Layer_1" xmlns="http://www.w3.org/2000/svg" xmlns:xlink="http://www.w3.org/1999/xlink" x="0px" y="0px"
	 viewBox="0 0 298.8 75.7" style="enable-background:new 0 0 298.8 75.7;" xml:space="preserve">
<style type="text/css">
	.st0{fill:#1F61A3;}
	.st1{fill:url(#SVGID_1_);}
	.st2{opacity:0.77;fill:url(#SVGID_2_);}
	.st3{fill:url(#SVGID_3_);}
	.st4{fill:url(#SVGID_4_);}
	.st5{fill:#66B821;}
	.st6{fill:url(#SVGID_5_);}
	.st7{opacity:0.77;fill:url(#SVGID_6_);}
	.st8{fill:url(#SVGID_7_);}
	.st9{fill:url(#SVGID_8_);}
	.st10{fill:#FB342E;}
	.st11{fill:url(#SVGID_9_);}
	.st12{opacity:0.77;fill:url(#SVGID_10_);}
	.st13{fill:url(#SVGID_11_);}
	.st14{fill:url(#SVGID_12_);}
	.st15{fill:#1A1A1A;}
</style>
<g>
	<g>
		<g>
			<g>
				<path class="st0" d="M56.1,5.2c-10.9-8.8-29.6-6.8-40.5,8.8c2.8-3.6,6.3-6.2,10.6-7.9c1.9-0.8,4-1.2,6.1-1.2
					C45.4,4.6,55,19.3,53.4,33.4c-0.1,1.3-0.3,2.6-0.6,3.9c0,0.1,0,0.2-0.1,0.4c-0.5,4.6-1.9,9.2-3.4,13.1c0.5-0.4,1-0.8,1.4-1.3
					C66.4,36.3,70.3,16.7,56.1,5.2z"/>
				<g>
					<linearGradient id="SVGID_1_" gradientUnits="userSpaceOnUse" x1="68.1711" y1="4.204" x2="44.3947" y2="22.1405">
						<stop  offset="0" style="stop-color:#5AC1DA"/>
						<stop  offset="0.1649" style="stop-color:#4DACCE"/>
						<stop  offset="0.7916" style="stop-color:#1F61A3"/>
					</linearGradient>
					<path class="st1" d="M58.9,8.7C56.2,5,49.7,0.1,43.3,0.4c-3.7,0.1-7.3,1.4-10.3,3c-0.9,0.5-1.8,1-2.7,1.6
						c0.6-0.1,1.2-0.1,1.8-0.1C45.4,4.6,55,19.3,53.4,33.4c-0.1,1.4-0.3,2.8-0.6,4.1c-0.3,2.9-0.8,4.7-1.4,7.1
						c4.7-5,8.5-11,10.3-17.4C63.2,21.4,63.5,15.4,58.9,8.7z"/>
					
						<linearGradient id="SVGID_2_" gradientUnits="userSpaceOnUse" x1="70.3372" y1="1.4136" x2="46.0279" y2="19.8922" gradientTransform="matrix(1 -9.500000e-03 9.500000e-03 1 6.5486 17.4012)">
						<stop  offset="9.000000e-02" style="stop-color:#969696"/>
						<stop  offset="0.1018" style="stop-color:#929393;stop-opacity:0.9839"/>
						<stop  offset="0.2689" style="stop-color:#656767;stop-opacity:0.7556"/>
						<stop  offset="0.4292" style="stop-color:#414445;stop-opacity:0.5365"/>
						<stop  offset="0.579" style="stop-color:#282B2D;stop-opacity:0.3319"/>
						<stop  offset="0.7141" style="stop-color:#181C1E;stop-opacity:0.1472"/>
						<stop  offset="0.8219" style="stop-color:#131719;stop-opacity:0"/>
					</linearGradient>
					<path class="st2" d="M52.8,36.7c0,0.3-0.1,0.6-0.1,0.9c0.1-0.5,0.1-1,0.2-1.5C52.9,36.3,52.9,36.5,52.8,36.7z"/>
				</g>
				<linearGradient id="SVGID_3_" gradientUnits="userSpaceOnUse" x1="21.8767" y1="4.8132" x2="56.1904" y2="28.2273">
					<stop  offset="0" style="stop-color:#1B5792"/>
					<stop  offset="0.4771" style="stop-color:#029CC3"/>
					<stop  offset="0.5054" style="stop-color:#00A0C6"/>
					<stop  offset="0.6959" style="stop-color:#0D7EAE"/>
					<stop  offset="0.8886" style="stop-color:#17629A"/>
					<stop  offset="1" style="stop-color:#1B5792"/>
				</linearGradient>
				<path class="st3" d="M53.5,24.9c-1.4-8.4-6.7-16.7-15-19.6C34.4,3.8,29.8,4,25.7,5.7c-3.3,1.4-6.1,3.5-8.5,6.2
					c2.5-2.6,5.4-4.5,8.8-5.9c1.9-0.8,4-1.2,6.1-1.2C45.4,4.6,55,19.3,53.4,33.4c-0.1,1.4-0.3,2.8-0.6,4.1l0,0
					C53.8,33.4,54.2,29.1,53.5,24.9z"/>
				<linearGradient id="SVGID_4_" gradientUnits="userSpaceOnUse" x1="19.0029" y1="36.5584" x2="52.1449" y2="11.7049">
					<stop  offset="0" style="stop-color:#3690C0"/>
					<stop  offset="0.382" style="stop-color:#256B94"/>
					<stop  offset="0.7889" style="stop-color:#15496A"/>
					<stop  offset="0.9983" style="stop-color:#0F3C5A"/>
				</linearGradient>
				<path class="st4" d="M32.2,4.8c-2.1,0-4.2,0.4-6.1,1.2c-9,3.6-14.7,11.3-17.9,24.2c5.4-4.4,12.9-6.4,21.1-5.8
					c3.6-7.2,16.1-9,21.9,1.2c1.6,3.1,2.3,7.1,1.6,12c0.3-1.4,0.5-2.8,0.6-4.1C55,19.3,45.4,4.6,32.2,4.8z"/>
			</g>
		</g>
		<g>
			<g>
				<path class="st5" d="M0.3,44.6c-2.2,13.8,8.9,29,27.9,30.7c-4.5-0.7-8.5-2.4-12.1-5.2c-1.6-1.3-3-2.9-4.1-4.7
					c-6.8-11.4,1.1-27,14.2-32.7c1.2-0.6,2.4-1,3.7-1.4c0.1,0,0.2-0.1,0.3-0.1c4.2-1.8,8.9-2.9,13.1-3.6c-0.6-0.2-1.2-0.4-1.8-0.6
					C22.1,20.1,3.1,26.5,0.3,44.6z"/>
				<g>
					
						<linearGradient id="SVGID_5_" gradientUnits="userSpaceOnUse" x1="2168.9136" y1="-2501.8145" x2="2145.2261" y2="-2482.5391" gradientTransform="matrix(-0.5082 -0.8612 0.8612 -0.5082 3252.312 633.5486)">
						<stop  offset="0.1869" style="stop-color:#A6D514"/>
						<stop  offset="0.5632" style="stop-color:#80C41C"/>
						<stop  offset="0.7922" style="stop-color:#66B821"/>
					</linearGradient>
					<path class="st6" d="M1.9,40.4C0,44.6-0.9,52.7,2.5,58c1.9,3.2,4.8,5.6,7.7,7.4c0.9,0.6,1.8,1.1,2.7,1.5c-0.4-0.5-0.7-1-1-1.5
						c-6.8-11.4,1.1-27,14.2-32.7c1.3-0.6,2.6-1.1,3.9-1.5c2.6-1.2,4.5-1.7,6.9-2.3c-6.7-1.6-13.8-1.9-20.2-0.2
						C10.8,30.3,5.3,33.1,1.9,40.4z"/>
					
						<linearGradient id="SVGID_6_" gradientUnits="userSpaceOnUse" x1="2180.7283" y1="-2488.3687" x2="2156.4163" y2="-2469.8879" gradientTransform="matrix(-0.5082 -0.8612 0.8612 -0.5082 3252.312 633.5486)">
						<stop  offset="9.000000e-02" style="stop-color:#969696"/>
						<stop  offset="0.1018" style="stop-color:#929393;stop-opacity:0.9839"/>
						<stop  offset="0.2689" style="stop-color:#656767;stop-opacity:0.7556"/>
						<stop  offset="0.4292" style="stop-color:#414445;stop-opacity:0.5365"/>
						<stop  offset="0.579" style="stop-color:#282B2D;stop-opacity:0.3319"/>
						<stop  offset="0.7141" style="stop-color:#181C1E;stop-opacity:0.1472"/>
						<stop  offset="0.8219" style="stop-color:#131719;stop-opacity:0"/>
					</linearGradient>
					<path class="st7" d="M29.1,31.7c0.3-0.1,0.6-0.3,0.8-0.4c-0.5,0.2-1,0.4-1.4,0.6C28.8,31.8,29,31.8,29.1,31.7z"/>
				</g>
				<linearGradient id="SVGID_7_" gradientUnits="userSpaceOnUse" x1="26.7375" y1="30.2135" x2="14.2243" y2="74.3764">
					<stop  offset="0" style="stop-color:#66B821"/>
					<stop  offset="0.5054" style="stop-color:#A6D51F"/>
					<stop  offset="0.6634" style="stop-color:#8DCA20"/>
					<stop  offset="0.8767" style="stop-color:#71BD21"/>
					<stop  offset="1" style="stop-color:#66B821"/>
				</linearGradient>
				<path class="st8" d="M18.6,37c-6.5,5.4-11.1,14.1-9.5,22.8c0.8,4.3,3.2,8.3,6.8,10.9c2.9,2.1,6.1,3.5,9.6,4.2
					C22,74,18.9,72.4,16,70.2c-1.6-1.3-3-2.9-4.1-4.7c-6.8-11.4,1.1-27,14.2-32.7c1.3-0.6,2.6-1.1,3.9-1.5c0,0,0,0,0,0
					C25.9,32.4,21.9,34.2,18.6,37z"/>
				<linearGradient id="SVGID_8_" gradientUnits="userSpaceOnUse" x1="52.7337" y1="61.51" x2="3.9336" y2="45.1026">
					<stop  offset="0" style="stop-color:#80C41C"/>
					<stop  offset="0.1858" style="stop-color:#7DC01C"/>
					<stop  offset="0.3624" style="stop-color:#74B51A"/>
					<stop  offset="0.5353" style="stop-color:#66A218"/>
					<stop  offset="0.706" style="stop-color:#518716"/>
					<stop  offset="0.8734" style="stop-color:#376412"/>
					<stop  offset="1" style="stop-color:#1F450F"/>
				</linearGradient>
				<path class="st9" d="M11.9,65.5c1.1,1.8,2.5,3.4,4.1,4.7c7.7,6,17.1,7,29.9,3.4c-6.5-2.4-12-7.9-15.6-15.4
					c-8.1,0.5-15.9-9.4-9.9-19.5c1.9-2.9,5-5.5,9.6-7.4c-1.3,0.4-2.6,0.9-3.9,1.5C13,38.5,5.1,54.1,11.9,65.5z"/>
			</g>
		</g>
		<g>
			<g>
				<path class="st10" d="M62.3,73.2C75.3,68.2,83,51,75,33.7c1.7,4.3,2.2,8.6,1.6,13.1c-0.3,2.1-1,4.1-2,5.9
					c-6.5,11.5-23.9,12.6-35.4,4.1c-1.1-0.8-2.1-1.6-3.1-2.5c-0.1-0.1-0.2-0.2-0.3-0.2c-3.7-2.8-7-6.3-9.6-9.5
					c0.1,0.6,0.2,1.3,0.4,1.9C30.2,66.6,45.2,79.8,62.3,73.2z"/>
				<g>
					
						<linearGradient id="SVGID_9_" gradientUnits="userSpaceOnUse" x1="3272.1079" y1="565.9048" x2="3248.5417" y2="587.835" gradientTransform="matrix(-0.4918 0.8707 -0.8707 -0.4918 2162.9055 -2487.0242)">
						<stop  offset="0" style="stop-color:#FA746F"/>
						<stop  offset="0.7916" style="stop-color:#FB342E"/>
					</linearGradient>
					<path class="st11" d="M57.8,73.9c4.6-0.5,12.1-3.7,15-9.3c1.8-3.3,2.4-7,2.6-10.4c0-1,0-2.1,0-3.1c-0.2,0.6-0.5,1.1-0.8,1.6
						c-6.5,11.5-23.9,12.6-35.4,4.1c-1.1-0.8-2.2-1.7-3.3-2.6c-2.3-1.7-3.7-3-5.4-4.8c2,6.6,5.3,12.9,9.9,17.6
						C44.7,71.3,49.8,74.6,57.8,73.9z"/>
					
						<linearGradient id="SVGID_10_" gradientUnits="userSpaceOnUse" x1="3283.0264" y1="583.0215" x2="3258.7173" y2="601.5001" gradientTransform="matrix(-0.4918 0.8707 -0.8707 -0.4918 2162.9055 -2487.0242)">
						<stop  offset="9.000000e-02" style="stop-color:#969696"/>
						<stop  offset="0.1018" style="stop-color:#929393;stop-opacity:0.9839"/>
						<stop  offset="0.2689" style="stop-color:#656767;stop-opacity:0.7556"/>
						<stop  offset="0.4292" style="stop-color:#414445;stop-opacity:0.5365"/>
						<stop  offset="0.579" style="stop-color:#282B2D;stop-opacity:0.3319"/>
						<stop  offset="0.7141" style="stop-color:#181C1E;stop-opacity:0.1472"/>
						<stop  offset="0.8219" style="stop-color:#131719;stop-opacity:0"/>
					</linearGradient>
					<path class="st12" d="M36.7,54.7c-0.3-0.2-0.5-0.4-0.7-0.5c0.4,0.3,0.8,0.6,1.2,0.9C37,54.9,36.8,54.8,36.7,54.7z"/>
				</g>
				<linearGradient id="SVGID_11_" gradientUnits="userSpaceOnUse" x1="40.4501" y1="63.9906" x2="78.4053" y2="41.3731">
					<stop  offset="0" style="stop-color:#FB342E"/>
					<stop  offset="0.5054" style="stop-color:#FA746F"/>
					<stop  offset="0.6674" style="stop-color:#FA5A55"/>
					<stop  offset="0.8782" style="stop-color:#FB3E39"/>
					<stop  offset="1" style="stop-color:#FB342E"/>
				</linearGradient>
				<path class="st13" d="M46.5,61.2c7.9,3,17.8,2.6,24.5-3.1c3.3-2.9,5.5-6.9,6-11.3c0.4-3.5,0-7-1.1-10.4c1,3.4,1.2,6.9,0.7,10.6
					c-0.3,2.1-1,4.1-2,5.9c-6.5,11.5-23.9,12.6-35.4,4.1c-1.1-0.8-2.2-1.7-3.3-2.6l0,0C39,57.2,42.5,59.6,46.5,61.2z"/>
				
					<linearGradient id="SVGID_12_" gradientUnits="userSpaceOnUse" x1="3239.1638" y1="590.3712" x2="3270.5442" y2="556.768" gradientTransform="matrix(-0.5 0.866 -0.866 -0.5 2181.0613 -2483.3706)">
					<stop  offset="0.2151" style="stop-color:#FB342E"/>
					<stop  offset="0.3286" style="stop-color:#F4322C"/>
					<stop  offset="0.4955" style="stop-color:#E02B27"/>
					<stop  offset="0.6954" style="stop-color:#C0211E"/>
					<stop  offset="0.9191" style="stop-color:#931313"/>
					<stop  offset="1" style="stop-color:#810D0E"/>
				</linearGradient>
				<path class="st14" d="M74.6,52.7c1-1.8,1.7-3.8,2-5.9c1.4-9.6-2.5-18.4-12-27.6c1.2,6.9-0.9,14.4-5.5,21.2
					c4.5,6.7-0.2,18.5-12,18.4c-3.4-0.2-7.3-1.6-11.2-4.6c1,0.9,2.1,1.8,3.3,2.6C50.6,65.3,68.1,64.2,74.6,52.7z"/>
			</g>
		</g>
	</g>
	<g>
		<g>
			<path class="st15" d="M100.4,24.7c3.4,0,6.1,1,8.3,3.1c2.1,2.1,3.2,4.8,3.2,8.1c0,3.4-1.1,6.1-3.2,8.1c-2.1,2.1-4.9,3.1-8.3,3.1
				c-3.4,0-6.1-1-8.3-3.1C90,42,89,39.3,89,36c0-3.4,1.1-6.1,3.2-8.1C94.3,25.8,97.1,24.7,100.4,24.7z M100.4,43.6
				c2.2,0,4-0.7,5.4-2.1c1.4-1.4,2.1-3.3,2.1-5.5c0-2.3-0.7-4.1-2.1-5.5c-1.4-1.4-3.2-2.1-5.4-2.1c-2.2,0-4,0.7-5.4,2.1
				C93.6,31.9,93,33.7,93,36c0,2.3,0.7,4.1,2.1,5.5C96.5,42.9,98.3,43.6,100.4,43.6z"/>
			<path class="st15" d="M131.3,39.2c0,2.3-0.7,4.1-2,5.6c-1.3,1.4-3.1,2.2-5.2,2.2c-1.9,0-3.5-0.1-4.8-0.3V54h-3.6V32
				c2.9-0.5,5.6-0.7,8.2-0.7C128.5,31.3,131.2,34.3,131.3,39.2z M127.7,39.3c0-3-1.4-4.9-4.5-4.9c-1.4,0-2.8,0.1-4,0.3v8.9
				c1.2,0.2,2.7,0.3,4.3,0.3C126,43.8,127.7,41.9,127.7,39.3z"/>
			<path class="st15" d="M139.3,46.7h-3.6v-15h3.6V46.7z"/>
			<path class="st15" d="M159.5,37.1v9.6h-3.6v-8.6c0-2.2-1.4-3.5-3.4-3.5c-1.2,0-2.6,0.1-4.2,0.3v11.9h-3.6V32
				c2.5-0.5,5.3-0.7,8.6-0.7C157,31.3,159.5,33.6,159.5,37.1z"/>
			<path class="st15" d="M139.3,30.1h-3.6v-4h3.6V30.1z"/>
			<path class="st15" d="M168.1,46.7h-3.6v-15h3.6V46.7z"/>
			<path class="st15" d="M168.1,30.1h-3.6v-4h3.6V30.1z"/>
			<path class="st15" d="M186.9,33.3c1.5,1.5,2.3,3.4,2.3,5.8c0,2.4-0.8,4.4-2.3,5.9c-1.5,1.5-3.5,2.2-6,2.2c-2.5,0-4.5-0.8-6.1-2.2
				c-1.5-1.5-2.3-3.5-2.3-5.9c0-2.4,0.8-4.3,2.3-5.8c1.5-1.5,3.6-2.2,6.1-2.2C183.3,31.1,185.3,31.8,186.9,33.3z M185.5,39.1
				c0-2.8-1.9-4.7-4.6-4.7c-2.8,0-4.7,1.9-4.7,4.7c0,2.9,1.9,4.8,4.7,4.8C183.6,44,185.5,42,185.5,39.1z"/>
			<path class="st15" d="M207.2,37.1v9.6h-3.6v-8.6c0-2.2-1.4-3.5-3.4-3.5c-1.2,0-2.6,0.1-4.2,0.3v11.9h-3.6V32
				c2.5-0.5,5.3-0.7,8.6-0.7C204.7,31.3,207.2,33.6,207.2,37.1z"/>
			<path class="st15" d="M221.3,38.9c-0.7,0-1.3,0.1-1.7,0.1h-4.3v7.7h-2.2V25.2c3.3-0.2,5.7-0.2,7.1-0.2c5.1,0,8.3,2.5,8.3,6.9
				c0,3.2-1.9,5.5-4.9,6.5l6.2,8.3H227L221.3,38.9z M220.4,37c3.5,0,5.9-2,5.9-5.1c0-3.2-2.2-4.8-6-4.8c-1.5,0-3.1,0-4.9,0.1V37
				H220.4z"/>
			<path class="st15" d="M235,33.7c1.5-1.5,3.4-2.2,5.8-2.2c2.4,0,4.3,0.7,5.8,2.2c1.5,1.4,2.2,3.3,2.2,5.7c0,2.3-0.8,4.2-2.2,5.7
				c-1.5,1.5-3.4,2.2-5.8,2.2c-2.4,0-4.3-0.7-5.8-2.2c-1.5-1.5-2.2-3.4-2.2-5.7C232.8,37,233.5,35.1,235,33.7z M245,35.1
				c-1.1-1.1-2.5-1.6-4.2-1.6c-1.7,0-3.1,0.5-4.2,1.6c-1.1,1-1.6,2.5-1.6,4.2c0,1.8,0.5,3.2,1.6,4.3c1.1,1.1,2.5,1.6,4.2,1.6
				c1.7,0,3.1-0.5,4.2-1.6c1.1-1.1,1.6-2.5,1.6-4.3C246.6,37.6,246.1,36.2,245,35.1z"/>
			<path class="st15" d="M266.9,46.4c-2.2,0.5-4.9,0.8-8,0.8c-3.8,0-5.9-2-5.9-6v-9.1h2.2v8.7c0,2.9,1.5,4.5,4.2,4.5
				c1.8,0,3.6-0.2,5.5-0.4V32.1h2.2V46.4z"/>
			<path class="st15" d="M281,46.9c-1.1,0.3-2.2,0.4-3.2,0.4c-3.4,0-5-1.7-5-5.6V27.5h2.2v4.7h5.2v2h-5.2v7.4c0,2.7,0.9,3.8,3.2,3.8
				c0.7,0,1.6-0.1,2.6-0.3L281,46.9z"/>
			<path class="st15" d="M296.8,33.6c1.3,1.2,1.9,2.9,2,5c0,0.5,0,1.1-0.1,1.7h-12.2c0.3,3,2.5,5,5.7,5c1.4,0,3.2-0.3,5.4-0.8
				l0.3,1.8c-2.2,0.7-4.2,1-5.8,1c-2.4,0-4.4-0.7-5.8-2.2c-1.4-1.5-2.1-3.4-2.1-5.7c0-2.3,0.7-4.2,2.1-5.6c1.4-1.4,3.2-2.2,5.5-2.2
				C293.8,31.7,295.5,32.4,296.8,33.6z M286.4,38.6h10.4c0-3.2-2-5.1-5-5.1C288.7,33.5,286.7,35.5,286.4,38.6z"/>
		</g>
	</g>
</g>
</svg>
